<svg xmlns:xlink="http://www.w3.org/1999/xlink" xmlns="http://www.w3.org/2000/svg" class="icon-wrapper-icon" width="18"  height="18" ><defs><symbol viewBox="0 0 18 18" id="icon-discount-stamp">
    <defs>
        <path d="M17.9195153,6.2199594 C18.0454739,6.59435971 18.0043697,7.00206914 17.8059533,7.34637193 L16.8487874,9 L17.8140649,10.6536281 C18.0133693,10.9979091 18.054482,11.40619 17.9275583,11.7807044 C17.8006346,12.1552188 17.5171039,12.462242 17.1448599,12.6282545 L15.3562575,13.4258869 L15.1169661,15.3032411 C15.0677109,15.6946185 14.850873,16.0486689 14.5184751,16.2804499 C14.1860771,16.5122309 13.7681156,16.6008262 13.3648658,16.5249804 L11.4302551,16.1631277 L10.0715662,17.5482844 C9.79191751,17.8363768 9.4000319,18 8.98968487,18 C8.57933785,18 8.18745224,17.8363768 7.90780352,17.5482844 L6.56330991,16.1631277 L4.63681078,16.523035 C4.2338728,16.5988887 3.81620193,16.510549 3.48386738,16.2791812 C3.15153282,16.0478134 2.93447935,15.6942646 2.88471051,15.3032411 L2.64541904,13.4258869 L0.856816689,12.6282545 C0.484572725,12.462242 0.201041967,12.1552188 0.0741182659,11.7807044 C-0.0528054349,11.40619 -0.0116926817,10.9979091 0.187611727,10.6536281 L1.14477761,9 L0.187611727,7.34637193 C-0.0122184183,7.00307034 -0.0545155892,6.59558842 0.0708197586,6.22122301 C0.196155106,5.84685761 0.477872679,5.53921234 0.848705114,5.37174548 L2.63730747,4.57411312 L2.87659894,2.6967589 C2.92585409,2.30538146 3.14269203,1.95133113 3.47508994,1.7195501 C3.80748785,1.48776907 4.22544944,1.39917377 4.6286992,1.47501957 L6.56330991,1.8368723 L7.91591509,0.451715617 C8.19556381,0.163623163 8.58744942,-1.72790207e-16 8.99779645,0 C9.40814348,1.72790207e-16 9.80002908,0.163623163 10.0796778,0.451715617 L11.4302551,1.8368723 L13.3567542,1.47696502 C13.7596922,1.4011113 14.1773631,1.48945096 14.5096976,1.7208188 C14.8420322,1.95218663 15.0590857,2.30573543 15.1088545,2.6967589 L15.348146,4.57411312 L17.1367483,5.37174548 C17.5087146,5.53846902 17.7920918,5.84553928 17.9195153,6.2199594 Z M11.993525,6.20311045 C12.1269032,6.02943426 12.1542537,5.81165116 12.0700726,5.62259081 C11.9858915,5.43353047 11.8029679,5.30191566 11.5902073,5.27732439 C11.3774467,5.25273313 11.1671725,5.33890142 11.0385929,5.50337051 L6.00480555,11.8148406 C5.80603883,12.0690878 5.85974959,12.4297769 6.1247719,12.6204623 C6.3897942,12.8111477 6.76576949,12.7596206 6.96453623,12.5053735 L11.993525,6.20311045 Z M11.5880388,9.07572706 C10.5391637,9.0832459 9.69081087,9.8971069 9.68297337,10.9033373 L9.68297337,11.2831304 C9.68297335,11.9360726 10.0460768,12.5394162 10.635506,12.8658873 C11.2249353,13.1923584 11.9511422,13.1923584 12.5405715,12.8658873 C13.1300008,12.5394162 13.4931042,11.9360726 13.4931042,11.2831304 L13.4931042,10.9033373 C13.4852667,9.8971069 12.6369138,9.0832459 11.5880388,9.07572706 Z M12.2934408,11.2854321 C12.2934408,11.6591755 11.9776216,11.9621543 11.5880388,11.9621543 C11.198456,11.9621543 10.8826367,11.6591755 10.8826367,11.2854321 L10.8826367,10.9033373 C10.8826367,10.529594 11.198456,10.2266151 11.5880388,10.2266151 C11.9776216,10.2266151 12.2934408,10.529594 12.2934408,10.9033373 L12.2934408,11.2854321 Z M8.32015581,6.72561363 C8.32015581,5.71625236 7.46722898,4.89800338 6.41509042,4.89800338 C5.36295185,4.89800338 4.51002502,5.71625236 4.51002502,6.72561363 L4.51002502,7.10540669 C4.51002502,8.11476796 5.36295185,8.93301694 6.41509042,8.93301694 C7.46722898,8.93301694 8.32015581,8.11476796 8.32015581,7.10540669 L8.32015581,6.72561363 Z M5.70968837,7.10540669 L5.70968837,6.72561363 C5.70968837,6.35187029 6.02550762,6.04889145 6.41509042,6.04889145 C6.80467321,6.04889145 7.12049246,6.35187029 7.12049246,6.72561363 L7.12049246,7.10540669 C7.12049246,7.47915003 6.80467321,7.78212887 6.41509042,7.78212887 C6.02550762,7.78212887 5.70968837,7.47915003 5.70968837,7.10540669 Z" id="icon-discount-stamp_path-1"></path>
    </defs>
    <g id="icon-discount-stamp_atom-/-icon-/-header-/-on-sale" stroke="none" stroke-width="1" fill-rule="evenodd">
        <mask id="icon-discount-stamp_mask-2" fill="white">
            <use xlink:href="#icon-discount-stamp_path-1"></use>
        </mask>
        <use id="icon-discount-stamp_on-sale" fill-rule="nonzero" xlink:href="#icon-discount-stamp_path-1"></use>
    </g>
</symbol></defs><use xlink:href="#icon-discount-stamp" fill="#404040"></use></svg>