<svg xmlns:xlink="http://www.w3.org/1999/xlink" xmlns="http://www.w3.org/2000/svg" role="img" class="product-tile__platforms-item product-tile__platforms-item--linux
                        " ng-show="!tile.data.isMovie" width="13"  height="12" ><defs><symbol viewBox="0 0 13 12" id="linux">
    <g id="linux_atom-/-icon-/-os-/-linux" stroke="none" stroke-width="1" fill-rule="evenodd">
        <path d="M10.9003304,7.69355061 C10.6596012,7.87303635 10.1079301,7.54397917 9.83710977,7.36449343 C9.69621223,7.25991973 9.52013377,7.2134796 9.34562098,7.23486485 C9.28145739,7.82788907 9.12230494,8.40689605 8.87419296,8.94995075 L8.72373721,9.29895079 C9.23528676,9.44852223 10.0276871,9.71775083 10.0276871,10.0069223 C10.0372269,10.0630291 10.0372269,10.1203298 10.0276871,10.1764366 C10.0075632,10.4186591 9.88947314,10.6424092 9.70042137,10.7965205 C9.51136961,10.9506318 9.26752488,11.0219238 9.02464871,10.9940938 L6.71766053,10.9940938 C6.40193648,11.0019896 6.10091043,10.8615975 5.90519947,10.6151795 L5.14289033,10.6151795 C4.94717938,10.8615975 4.64615333,11.0019896 4.33042928,10.9940938 L2.01341071,10.9940938 C1.77053454,11.0219238 1.52668981,10.9506318 1.33763805,10.7965205 C1.14858629,10.6424092 1.03049626,10.4186591 1.01037237,10.1764366 C1.0054401,10.1167085 1.0054401,10.056679 1.01037237,9.99695087 C1.01037237,9.69780798 1.79274228,9.42857937 2.31432221,9.2690365 L2.16386646,8.89012217 C1.89921079,8.36374991 1.73914568,7.79157945 1.69243844,7.20495056 C1.51792565,7.18356531 1.34184719,7.23000544 1.20094966,7.33457914 C0.92009892,7.51406488 0.378458216,7.84312206 0.137729014,7.66363632 C-0.103000188,7.48415059 0.00733402979,7.33457914 0.197911315,7.11520769 C0.388488599,6.89583624 2.203988,5.40012179 2.203988,5.0012646 C2.203988,4.60240741 2.33438298,3.20640726 2.37450451,3.00697867 C2.81900919,1.7503202 4.04580559,0.937262942 5.38361954,1.01269273 L5.5240449,1.01269273 C6.87535815,0.886056238 8.1310104,1.71823766 8.53315993,3.00697867 C8.53315993,3.16652154 8.67358529,4.55255026 8.72373721,5.0012646 C8.77388913,5.44997893 10.5693278,6.89583624 10.7298139,7.11520769 C10.8903,7.33457914 11.1410596,7.53400774 10.9003304,7.69355061 Z M6.88817705,4.8317503 C7.25413183,4.66103821 7.46783709,4.27542898 7.41747025,3.87669499 C7.36710341,3.477961 7.06412774,3.15685236 6.66707711,3.08139112 C6.27002648,3.00592989 5.86926786,3.1932907 5.67450066,3.54543587 L5.51401452,3.38589299 L5.36355877,3.54543587 C5.18355107,3.18050526 4.7834552,2.97682958 4.3803882,3.044936 C3.97732121,3.11304242 3.66738455,3.43669263 3.61876925,3.84025378 C3.57015396,4.24381493 3.79445115,4.63106772 4.16994314,4.79186458 L6.88817705,4.8317503 Z M4.72161423,4.93146459 C4.7166705,4.89840817 4.7166705,4.86480672 4.72161423,4.8317503 C4.72161423,4.8317503 4.72161423,4.8317503 4.72161423,4.8317503 C4.72786963,4.78828627 4.74512634,4.74711358 4.77176615,4.71209314 C4.8749804,4.61656232 4.99366704,4.53902666 5.12282957,4.48275026 L5.89516909,4.48275026 C6.01386352,4.54155157 6.12224502,4.61899292 6.21614136,4.71209314 C6.24951854,4.73970385 6.27104276,4.77893298 6.27632366,4.82177887 C6.28083567,4.8582032 6.28083567,4.89504026 6.27632366,4.93146459 L4.72161423,4.93146459 Z M6.27632366,5.0012646 C6.27961647,5.02441613 6.27961647,5.04791308 6.27632366,5.07106461 C6.27632366,5.07106461 5.92526024,5.56963609 5.80489564,5.70923611 C5.68453104,5.84883612 5.57419682,5.81892183 5.57419682,5.81892183 C5.47949323,5.8308953 5.38616599,5.78837173 5.33346762,5.70923611 C5.21310302,5.56963609 4.84197883,5.07106461 4.84197883,5.07106461 C3.88832689,6.07262721 3.360161,7.40135449 3.36751247,8.78043645 C3.36751247,8.84026502 3.36751247,8.9000936 3.36751247,8.96989361 C3.54805937,8.96989361 3.42769477,9.20920792 3.65839359,9.20920792 C4.57115848,9.20920792 5.25322455,9.54823653 5.343498,9.98697944 C5.43520825,10.1262834 5.43520825,10.3063613 5.343498,10.4456652 L5.83498679,10.4456652 C5.71063324,10.2949324 5.71063324,10.0778837 5.83498679,9.92715086 C5.99547292,9.51832224 6.62738708,9.20920792 7.49000005,9.20920792 C7.73072925,9.20920792 7.61036465,8.93000789 7.78088117,8.96989361 C7.78929984,8.9070185 7.78929984,8.84331155 7.78088117,8.78043645 C7.83827393,7.35621602 7.27102317,5.97734865 6.22617174,5.0012646 L6.27632366,5.0012646 Z M5.89516909,4.24343594 C5.79486526,4.24343594 5.70459181,4.07392164 5.70459181,3.85455019 C5.70459181,3.63517873 5.79486526,3.46566443 5.89516909,3.46566443 C5.99547292,3.46566443 6.09577676,3.63517873 6.09577676,3.85455019 C6.09577676,4.07392164 5.95535139,4.24343594 5.84501717,4.24343594 L5.89516909,4.24343594 Z M5.24319417,4.24343594 C5.13285995,4.24343594 5.0425865,4.07392164 5.0425865,3.85455019 C5.0425865,3.63517873 5.13285995,3.46566443 5.24319417,3.46566443 C5.35352839,3.46566443 5.44380184,3.63517873 5.44380184,3.85455019 C5.44380184,4.07392164 5.30337647,4.24343594 5.19304225,4.24343594 L5.24319417,4.24343594 Z" id="linux_linux" fill-rule="nonzero"></path>
    </g>
</symbol></defs><use xlink:href="#linux" fill="#999999"></use></svg>