<svg xmlns:xlink="http://www.w3.org/1999/xlink" xmlns="http://www.w3.org/2000/svg" viewBox="0 0 32 32" class="menu-friends-empty__header-icon" width="32"  height="32" ><defs><symbol preserveAspectRatio="xMidYMax meet" viewBox="0 0 17.6 16" id="icon-friends2"><path d="M17.7,13.4c0,2.2-4.6,2.6-6.7,2.6s-6.6-0.4-6.6-2.6c0-1.8,2.4-4.9,4.6-4.9c-1.2-1-2-2.4-2-4
    C7,2,8.7,0,11,0c2.4,0.1,4.2,2.1,4,4.5c0,0,0,0,0,0.1c0,1.6-0.7,3-2,4C15.4,8.5,17.7,11.5,17.7,13.4z M13.6,4.5
    c0.2-1.4-0.8-2.7-2.2-2.9C10,1.4,8.7,2.4,8.5,3.8c0,0.2,0,0.5,0,0.7c0,1.7,1,3,2.5,3C12.6,7.5,13.7,6.1,13.6,4.5
    C13.6,4.6,13.6,4.6,13.6,4.5L13.6,4.5z M11,9.5c-3.4,0-4.9,2.2-5,3.8c0.3,0.3,1.8,1.2,5,1.2s4.8-0.9,5.1-1.2
    C16,11.7,14.3,9.5,11,9.5L11,9.5z M3,5C3,3.6,4,2.5,5.3,2.4c0.2,0,0.4,0,0.6,0C6.1,2,6.2,1.5,6.4,1.1C6.1,1,5.8,0.9,5.4,1
    C3.2,1,1.5,2.8,1.5,5c0,1.4,0.7,2.7,1.9,3.5c-2,0-3.3,2.5-3.3,4c0,1.3,1.6,2,3.2,2.2c-0.3-0.4-0.4-1-0.1-1.5c-0.6,0-1.2-0.3-1.7-0.7
    c0-1.9,1.6-3.4,3.5-3.4c0,0,0,0,0.1,0c0.1-0.5,0.4-0.9,0.8-1C5.2,7.9,3,6.4,3,5z"></path></symbol></defs><use xlink:href="#icon-friends2" fill="#2168A6"></use></svg>