<svg xmlns:xlink="http://www.w3.org/1999/xlink" xmlns="http://www.w3.org/2000/svg" viewBox="0 0 15 16" class="menu-icon-svg menu-icon-svg--notifications" ng-class="{ 'got-notification': notifications.newNotificationAnimation }" width="15"  height="16" ><defs><symbol preserveAspectRatio="xMidYMax meet" viewBox="0 0 16 16.3" id="icon-notification"><path d="M16,14.2c-0.1,0.3-0.4,0.4-0.7,0.4H9.6v0.2c0,1.6-0.9,1.4-1.6,1.4
    c-0.8,0-1.7,0.2-1.7-1.4c0-0.1,0-0.1,0-0.2H0.7c-0.3,0-0.5-0.1-0.7-0.4c0,0,0-1,0-1c1.9-1.4,3.1-3.6,3-6c0-3.4,1.5-6.3,2.8-6.7
    C6.2,0.3,6.6,0.2,7,0.2c0.6-0.2,1.4-0.2,2,0c0.4,0,0.8,0.1,1.1,0.3C11.7,0.9,13,4.6,13,7.2c0,2.4,1.1,4.6,3,6
    C16,13.5,16,13.8,16,14.2z M11.5,7.3c0-3.7-2.2-5.7-2.5-5.7l-2,0c-0.3,0-2.5,1.9-2.5,5.7c0.1,2.1-0.6,4.2-2,5.8h11.1
    C12.3,12.1,11.5,10.1,11.5,7.3z"></path></symbol></defs><use xlink:href="#icon-notification" fill="#CCCCCC"></use></svg>