<svg xmlns:xlink="http://www.w3.org/1999/xlink" xmlns="http://www.w3.org/2000/svg" viewBox="0 0 14.69 16" class="menu-icon-svg menu-icon-svg--search" width="14.69"  height="16" ><defs><symbol preserveAspectRatio="xMidYMax meet" viewBox="0 0 13.8 15" id="icon-search2"><path d="M13.8,13.7L12.2,15L9,11.1C8.1,11.7,7.1,12,6,12c-3.2,0.1-5.9-2.4-6-5.6C0,6.3,0,6.1,0,6
    c0-3.3,2.7-6,6-6s6,2.7,6,6c0,1.5-0.6,3-1.6,4.1L13.8,13.7z M6,1.6c-2.3-0.1-4.3,1.6-4.5,4c0,0.1,0,0.3,0,0.4c0,2.5,1.9,4.5,4.4,4.6
    s4.5-1.9,4.6-4.4C10.5,3.7,8.6,1.6,6,1.6C6.1,1.6,6,1.6,6,1.6z"></path></symbol></defs><use xlink:href="#icon-search2" fill="#CCCCCC"></use></svg>