<svg xmlns:xlink="http://www.w3.org/1999/xlink" xmlns="http://www.w3.org/2000/svg" role="img" class="product-tile__label-icon" width="10"  height="10" ><defs><symbol viewBox="0 0 10 10" id="is-upcoming">
    <g id="is-upcoming_Symbols" stroke="none" stroke-width="1">
        <g id="is-upcoming_ribbon-/-2.-soon" transform="translate(-16.000000, -6.000000)">
            <path d="M25.6615721,9.91763367 L16.3384279,9.91763367 C16.1528384,9.91763367 16,10.0638444 16,10.2198025 L16,15.1909673 C16,15.6393469 16.4039301,16 16.9061135,16 L25.0938865,16 C25.5960699,16 26,15.6393469 26,15.1909673 L26,10.2198025 C26,10.0638444 25.8471616,9.91763367 25.6615721,9.91763367 Z M19.4061135,14.3819346 C19.4061135,14.4989032 19.3187773,14.5866296 19.1768559,14.5866296 L18.2707424,14.5866296 C18.139738,14.5866296 18.0414847,14.5086506 18.0414847,14.3819346 L18.0414847,13.5729019 C18.0414847,13.4461859 18.128821,13.3682069 18.2707424,13.3682069 L19.1768559,13.3682069 C19.3078603,13.3682069 19.4061135,13.4461859 19.4061135,13.5729019 L19.4061135,14.3819346 Z M19.4061135,12.3544792 C19.4061135,12.4714477 19.3187773,12.5591742 19.1768559,12.5591742 L18.2707424,12.5591742 C18.139738,12.5591742 18.0414847,12.4811951 18.0414847,12.3544792 L18.0414847,11.5454465 C18.0414847,11.4187305 18.128821,11.3407514 18.2707424,11.3407514 L19.1768559,11.3407514 C19.3078603,11.3407514 19.4061135,11.4187305 19.4061135,11.5454465 L19.4061135,12.3544792 Z M21.6768559,14.3819346 C21.6768559,14.4989032 21.5895197,14.5866296 21.4475983,14.5866296 L20.5414847,14.5866296 C20.4104803,14.5866296 20.3122271,14.5086506 20.3122271,14.3819346 L20.3122271,13.5729019 C20.3122271,13.4461859 20.3995633,13.3682069 20.5414847,13.3682069 L21.4475983,13.3682069 C21.5786026,13.3682069 21.6768559,13.4461859 21.6768559,13.5729019 L21.6768559,14.3819346 Z M21.6768559,12.3544792 C21.6768559,12.4714477 21.5895197,12.5591742 21.4475983,12.5591742 L20.5414847,12.5591742 C20.4104803,12.5591742 20.3122271,12.4811951 20.3122271,12.3544792 L20.3122271,11.5454465 C20.3122271,11.4187305 20.3995633,11.3407514 20.5414847,11.3407514 L21.4475983,11.3407514 C21.5786026,11.3407514 21.6768559,11.4187305 21.6768559,11.5454465 L21.6768559,12.3544792 Z M23.9585153,14.3819346 C23.9585153,14.4989032 23.871179,14.5866296 23.7292576,14.5866296 L22.8231441,14.5866296 C22.6921397,14.5866296 22.5938865,14.5086506 22.5938865,14.3819346 L22.5938865,13.5729019 C22.5938865,13.4461859 22.6812227,13.3682069 22.8231441,13.3682069 L23.7292576,13.3682069 C23.860262,13.3682069 23.9585153,13.4461859 23.9585153,13.5729019 L23.9585153,14.3819346 Z M23.9585153,12.3544792 C23.9585153,12.4714477 23.871179,12.5591742 23.7292576,12.5591742 L22.8231441,12.5591742 C22.6921397,12.5591742 22.5938865,12.4811951 22.5938865,12.3544792 L22.5938865,11.5454465 C22.5938865,11.4187305 22.6812227,11.3407514 22.8231441,11.3407514 L23.7292576,11.3407514 C23.860262,11.3407514 23.9585153,11.4187305 23.9585153,11.5454465 L23.9585153,12.3544792 Z M25.0938865,7.01372772 C25.5960699,7.01372772 26,7.38412824 26,7.8325078 L26,8.33937167 C26,8.49532978 25.8471616,8.64154051 25.6615721,8.64154051 L16.3384279,8.64154051 C16.1637555,8.64154051 16,8.50507716 16,8.33937167 L16,7.82276042 C16,7.37438085 16.4039301,7.01372772 16.9061135,7.01372772 L18.0524017,7.01372772 L18.0524017,6.60433768 C18.0524017,6.26317931 18.3689956,6 18.7292576,6 C19.1113537,6 19.4061135,6.28267408 19.4061135,6.60433768 L19.4061135,7.01372772 L22.6048035,7.01372772 L22.6048035,6.60433768 C22.6048035,6.26317931 22.9213974,6 23.2816594,6 C23.6637555,6 23.9585153,6.28267408 23.9585153,6.60433768 L23.9585153,7.01372772 L25.0938865,7.01372772 Z" id="is-upcoming_icon_soon"></path>
        </g>
    </g>
</symbol></defs><use xlink:href="#is-upcoming" fill="#FFFFFF"></use></svg>