<svg xmlns:xlink="http://www.w3.org/1999/xlink" xmlns="http://www.w3.org/2000/svg" class="icon-wrapper-icon" width="18"  height="18" ><defs><symbol viewBox="0 0 18 18" id="icon-compass">
    <defs>
        <path d="M9,18 C13.9705627,18 18,13.9705627 18,9 C18,4.02943725 13.9705627,0 9,0 C4.02943725,0 0,4.02943725 0,9 C0,13.9705627 4.02943725,18 9,18 Z M7.05650647,6.43582549 L13.3771904,4.0616552 C13.8735247,3.87522254 14.125034,4.12569428 13.9383187,4.6227864 L11.5641609,10.9435038 C11.4705622,11.1926916 11.1934591,11.4702826 10.9434935,11.5641745 L4.62280957,13.9383448 C4.12647533,14.1247775 3.874966,13.8743057 4.06168135,13.3772136 L6.43583907,7.05649618 C6.52943777,6.80730843 6.80654087,6.52971736 7.05650647,6.43582549 Z M9,10 C9.55228475,10 10,9.55228475 10,9 C10,8.44771525 9.55228475,8 9,8 C8.44771525,8 8,8.44771525 8,9 C8,9.55228475 8.44771525,10 9,10 Z" id="icon-compass_path-1"></path>
    </defs>
    <g id="icon-compass_atom-/-icon-/-header-/-discover" stroke="none" stroke-width="1" fill-rule="evenodd">
        <mask id="icon-compass_mask-2" fill="white">
            <use xlink:href="#icon-compass_path-1"></use>
        </mask>
        <use id="icon-compass_discover" fill-rule="nonzero" xlink:href="#icon-compass_path-1"></use>
    </g>
</symbol></defs><use xlink:href="#icon-compass" fill="#404040"></use></svg>