<svg xmlns:xlink="http://www.w3.org/1999/xlink" xmlns="http://www.w3.org/2000/svg" class="tooltip-icon-wrapper--icon " width="32"  height="32" ><defs><symbol viewBox="0 0 32 32" id="icon-store">
<style type="text/css">
	#icon-store .st0{clip-path:url(#icon-store_SVGID_2_);fill:none;stroke:#86328A;stroke-width:4;stroke-miterlimit:10;}
	#icon-store .st1{fill:none;stroke:#86328A;stroke-width:2;stroke-miterlimit:10;}
</style>
<g>
	<g>
		<defs>
			<path id="icon-store_SVGID_1_" d="M28,9.5v1c0,1.7-1.3,3-3,3s-3-1.3-3-3c0,1.7-1.3,3-3,3c-1.7,0-3-1.3-3-3c0,1.7-1.3,3-3,3c-1.7,0-3-1.3-3-3
				c0,1.7-1.3,3-3,3s-3-1.3-3-3v-1v-2c0-1.7,1.3-3,3-3h18c1.7,0,3,1.3,3,3V9.5z"></path>
		</defs>
		<clipPath id="icon-store_SVGID_2_">
			<use xlink:href="#icon-store_SVGID_1_" style="overflow:visible;"></use>
		</clipPath>
		<path class="st0" d="M28,9.5v1c0,1.7-1.3,3-3,3s-3-1.3-3-3c0,1.7-1.3,3-3,3c-1.7,0-3-1.3-3-3c0,1.7-1.3,3-3,3c-1.7,0-3-1.3-3-3
			c0,1.7-1.3,3-3,3s-3-1.3-3-3v-1v-2c0-1.7,1.3-3,3-3h18c1.7,0,3,1.3,3,3V9.5z"></path>
	</g>
	<path class="st1" d="M7,15.5v10c0,1.1,0.9,2,2,2h14c1.1,0,2-0.9,2-2v-10"></path>
	<path class="st1" d="M16,19.5L16,19.5c1.7,0,3,1.3,3,3v5h-6v-5C13,20.8,14.3,19.5,16,19.5z"></path>
</g>
</symbol></defs><use xlink:href="#icon-store" stroke="#86328A" fill="none" stroke-width="2px"></use></svg>