<svg xmlns:xlink="http://www.w3.org/1999/xlink" xmlns="http://www.w3.org/2000/svg" viewBox="0 0 32 32" class="menu-features-slider__slide-icon menu-features-slider__slide-icon--slide1" width="32"  height="32" ><defs><symbol preserveAspectRatio="xMidYMax meet" viewBox="0 0 29 27" id="icon-star"><g stroke="inherit" stroke-width="1" fill="none" fill-rule="evenodd" stroke-linejoin="round" style="--darkreader-inline-fill:none; --darkreader-inline-stroke: inherit;" data-darkreader-inline-fill="" data-darkreader-inline-stroke=""><g transform="translate(-533.000000, -1981.000000)" stroke="inherit" stroke-width="2px" style="--darkreader-inline-stroke: inherit;" data-darkreader-inline-stroke="" fill="none"><g transform="translate(247.000000, 1763.000000)" fill="none" stroke-width="2px"><path d="M300.144,219 C301.176,219.78 302.814,223.393 304.284,227.563 C308.618,227.688 312.31,228.017 313.288,228.549 C312.571,230.048 310.107,232.661 306.683,235.343 C307.751,239.368 308.216,242.354 308.267,244 C306.252,243.034 303.668,242.049 300.144,239.883 C296.619,242.049 294.036,243.034 292.021,244 C292.073,242.354 292.537,239.368 293.605,235.343 C290.181,232.661 287.717,230.048 287,228.549 C287.978,228.017 291.669,227.688 296.004,227.563 C297.475,223.393 299.112,219.78 300.144,219 Z" fill="none" stroke-width="2px"></path></g></g></g></symbol></defs><use xlink:href="#icon-star" stroke="#007DB8"></use></svg>