<svg xmlns:xlink="http://www.w3.org/1999/xlink" xmlns="http://www.w3.org/2000/svg" role="img" class="product-tile__platforms-item product-tile__platforms-item--mac
                        " ng-show="!tile.data.isMovie" width="13"  height="12" ><defs><symbol viewBox="0 0 13 12" id="mac">
    <g id="mac_atom-/-icon-/-os-/-apple" stroke="none" stroke-width="1" fill-rule="evenodd">
        <path d="M8.25506918,2.51515152 C7.8632998,2.51063595 7.4737615,2.57218239 7.10430972,2.6969697 L6.89316119,2.77777778 L6.58699583,2.88888889 C6.42242671,2.95242164 6.24711057,2.98665367 6.06968195,2.98989899 C5.90478243,2.97832672 5.74362441,2.93720915 5.59459777,2.86868687 L5.34121954,2.77777778 L5.13007101,2.6969697 C4.81459689,2.57578108 4.47762366,2.5140439 4.13767295,2.51515152 C3.26918925,2.47596072 2.42949584,2.81814619 1.85726888,3.44444444 C1.2758091,4.11155987 0.971399297,4.96013903 1.00211735,5.82828283 C1.00349294,6.57969816 1.14285852,7.32503769 1.41385698,8.03030303 C1.7022169,8.76399619 2.11608141,9.44670725 2.63851842,10.0505051 C2.97636724,10.5639174 3.53158866,10.9106848 4.1587878,11 C4.38701574,10.9954657 4.61244383,10.9509598 4.82390565,10.8686869 L5.10895616,10.7676768 L5.33066211,10.6868687 C5.60363354,10.5855398 5.89307535,10.5308379 6.18581364,10.5252525 C6.41453975,10.5228092 6.64233798,10.5534584 6.86148892,10.6161616 L7.14653942,10.7272727 L7.32601567,10.7878788 C7.60991446,10.9081434 7.91362466,10.9799338 8.2233969,11 C8.5493582,10.9855957 8.86117505,10.8683921 9.1102207,10.6666667 C9.51951041,10.3462998 9.87549481,9.96823979 10.1659633,9.54545455 C10.5174766,9.07340276 10.7982115,8.5566061 11,8.01010101 C10.6247397,7.84211535 10.2875725,7.60531989 10.0076019,7.31313131 C9.8176241,7.08556093 9.66131297,6.83403909 9.54307518,6.56565657 C9.43509935,6.29133252 9.38139885,6.00018525 9.38471379,5.70707071 C9.38285633,5.32111797 9.4769415,4.94027384 9.65920687,4.5959596 C9.92196053,4.18357526 10.2839315,3.83725294 10.7149495,3.58585859 C10.1479464,2.8656091 9.24977136,2.45478174 8.30785631,2.48484848 L8.25506918,2.51515152 Z M8.11782264,5.38289951e-15 C7.70436761,0.0653484811 7.31334701,0.224694223 6.9776206,0.464646465 C6.65359449,0.706683914 6.38423124,1.00907327 6.18581364,1.35353535 C6.00127777,1.66158186 5.8996943,2.00869555 5.8902057,2.36363636 C5.88312315,2.46790348 5.88312315,2.57250056 5.8902057,2.67676768 C6.31174874,2.67866299 6.72528167,2.56661905 7.08319487,2.35353535 C7.44728911,2.12216155 7.74783944,1.81035275 7.95946124,1.44444444 C8.16627077,1.09601416 8.2787737,0.703651826 8.28674146,0.303030303 C8.28674146,0.232323232 8.28674146,0.131313131 8.28674146,0 L8.09670778,0 L8.11782264,5.38289951e-15 Z" id="mac_apple" fill-rule="nonzero"></path>
    </g>
</symbol></defs><use xlink:href="#mac" fill="#999999"></use></svg>