<svg xmlns:xlink="http://www.w3.org/1999/xlink" xmlns="http://www.w3.org/2000/svg" viewBox="0 0 32 32" class="menu-notifications-empty__header-icon" width="32"  height="32" ><defs><symbol preserveAspectRatio="xMidYMax meet" viewBox="0 0 45 32.4" id="icon-notifications-empty"><path d="M43,28.2h-3c0,0,2-3.4,2-6c-0.2-2.1-0.9-4.2-2-6h3c1.1,1.8,1.8,3.8,2,6
    C45,24.8,43,28.2,43,28.2z M37.5,24.7l-11.1,3c0,0.1,0.1,0.3,0.1,0.4c0.8,3.1-1,3.1-2.4,3.5c-1.5,0.4-3.1,1.2-3.9-1.8
    c0-0.1-0.1-0.3-0.1-0.4l-11,3c-0.5,0.2-1.1,0-1.5-0.5c0,0-0.6-1.9-0.5-2c3-3.7,4-8.6,2.7-13.1c-1.7-6.5-0.3-13,1.9-14.4
    c0.7-0.5,1.4-0.9,2.2-1.2c2-0.5,1.9-0.5,3.9-1.1C18.6,0,19.4,0,20.2,0.1c3.2,0.2,7.7,6.6,9,11.5c1.1,4.6,4.5,8.4,8.9,10
    c0.1,0.7,0.3,1.3,0.5,1.9C38.5,24.1,38.1,24.6,37.5,24.7z M26.4,12.7c-1.9-7.2-7.2-9.8-7.8-9.6l-3.9,1c-0.6,0.2-3.8,5.1-1.9,12.3
    c1.4,5.3,0.7,9.8-0.9,12.3l21.4-5.7C30.4,21.6,27.8,18,26.4,12.7z M2,28.2c-1.1-1.8-1.8-3.8-2-6c0-2.6,2-6,2-6h3c0,0-2,3.4-2,6
    c0.2,2.1,0.9,4.2,2,6H2z"></path></symbol></defs><use xlink:href="#icon-notifications-empty" fill="#A62121"></use></svg>