<svg xmlns:xlink="http://www.w3.org/1999/xlink" xmlns="http://www.w3.org/2000/svg" role="img" class="product-tile__label-icon" width="11"  height="10" ><defs><symbol viewBox="0 0 11 10" id="is-wishlisted">
    <g id="is-wishlisted_Symbols" stroke="none" stroke-width="1">
        <g id="is-wishlisted_ribbon-/-4.-wishlisted" transform="translate(-16.000000, -6.000000)">
            <path d="M21.4866357,16 C21.3992738,16 21.2994317,15.9634237 21.2370304,15.9024631 L17.5428725,12.4886717 C16.8938988,11.8912582 16.4196488,11.1719236 16.1825238,10.4038206 C15.6708331,8.73350122 16.332287,7.5996348 16.9687804,6.92906864 C17.517912,6.36823148 18.2667278,6.03904446 19.0155436,6.00246812 C20.2136488,5.95369967 21.0373462,6.63645795 21.4866357,7.27044777 C21.8984843,6.70961062 22.6722607,5.95369967 23.9826883,6.00246812 C24.7315041,6.03904446 25.4803198,6.36823148 26.0294514,6.92906864 C26.6784251,7.58744269 27.3273988,8.73350122 26.815708,10.4038206 C26.578583,11.1719236 26.1168133,11.9034504 25.4678396,12.4886717 L21.7362409,15.9024631 C21.6613593,15.9634237 21.5739975,16 21.4866357,16 Z" id="is-wishlisted_icon_wishlisted"></path>
        </g>
    </g>
</symbol></defs><use xlink:href="#is-wishlisted" fill="#FFFFFF"></use></svg>