<svg xmlns:xlink="http://www.w3.org/1999/xlink" xmlns="http://www.w3.org/2000/svg" class="big-spots__arrow-icon cc-fill-secondary cc-stroke-background" width="40"  height="40" ><defs><symbol viewBox="0 0 40 40" id="icon-chevron-circled"><path d="M20 38a18 18 0 1 1 0-36 18 18 0 0 1 0 36zm4.2-18.1l-7.8-7.8c.4.4 1 .4 1.4 0l-1.4 1.4c.4-.4.4-1 0-1.4l5.7 5.7a3 3 0 0 1 0 4.2l-5.7 5.7c.4-.4.4-1 0-1.4l1.4 1.4a1 1 0 0 0-1.4 0l7.8-7.8z" stroke-width="4" fill-rule="evenodd"></path></symbol></defs><use xlink:href="#icon-chevron-circled" stroke="#D8D8D8" fill="#616161"></use></svg>