<svg xmlns:xlink="http://www.w3.org/1999/xlink" xmlns="http://www.w3.org/2000/svg" class="big-spot__platforms-icon" width="13"  height="12" ><defs><symbol viewBox="0 0 13 12" id="windows">
    <g id="windows_atom-/-icon-/-os-/-windows" stroke="none" stroke-width="1" fill-rule="evenodd">
        <path d="M10.5668627,1.77275888 C10.0217162,2.0338357 9.43620347,2.20002513 8.83540696,2.26420783 C8.22521313,2.25901492 7.62246731,2.12933833 7.06391758,1.88308415 C6.96383343,1.75269973 6.81370722,2.07364599 6.81370722,2.07364599 L5.99301722,5.43355212 C5.90294149,5.68429138 5.99301722,5.7444688 5.99301722,5.7444688 C6.60132727,6.09892675 7.29106527,6.28900564 7.99470014,6.29609518 C8.68042928,6.22616754 9.35367728,6.06424647 9.99638305,5.8146758 C10.1942127,5.68266292 10.3476913,5.49390465 10.4367533,5.27307899 C10.6269132,4.38044721 10.9872161,1.8329363 10.9872161,1.8329363 C11.0873002,1.55210832 10.5668627,1.77275888 10.5668627,1.77275888 Z M9.67611378,6.62707101 C9.13282427,7.00642209 8.47441677,7.18378748 7.81454867,7.12854954 C7.16584231,7.09616149 6.53730629,6.8919746 5.99301722,6.53680488 C5.89293308,6.40642046 5.74280686,6.73739629 5.74280686,6.73739629 L4.99217577,10.177539 C4.89209162,10.4483374 4.99217577,10.4483374 4.99217577,10.4483374 C5.6291195,10.8127857 6.35048308,11.0030195 7.08393441,10.9999638 C7.70989363,10.9109744 8.321995,10.7424592 8.90546586,10.4984852 C9.10596954,10.3694479 9.2602223,10.1797376 9.3458361,9.95688842 L10.066442,6.63710058 C10.1965513,6.43650917 9.67611378,6.62707101 9.67611378,6.62707101 Z M4.99217577,6.50671616 C4.38022374,6.12367589 3.70077551,5.86153537 2.99049285,5.73443923 C2.38365141,5.80197303 1.78186374,5.90918365 1.18897823,6.05538549 C0.993564451,6.1900444 0.840743987,6.37799324 0.748607989,6.5969823 C0.558448112,7.48961408 0.0179937251,10.0672137 0.0179937251,10.0672137 C-0.10210725,10.3380121 0.418330308,10.1173616 0.418330308,10.1173616 C0.952986606,9.73485128 1.59294645,9.52808929 2.24987017,9.52561689 C2.91476481,9.59582869 3.54626581,9.85313559 4.07140162,10.2678051 C4.17148577,10.3981895 4.32161199,10.0672137 4.32161199,10.0672137 L4.99217577,6.81763285 C5.07224308,6.56689359 4.99217577,6.50671616 4.99217577,6.50671616 Z M1.35912128,5.43355212 C1.94662128,5.11639676 2.62028196,4.99685052 3.28073687,5.09254672 C3.91551767,5.13249306 4.52766676,5.34390564 5.05222625,5.70435052 C5.1523104,5.83473494 5.30243662,5.51378868 5.30243662,5.51378868 L6.15315185,1.90314329 C6.24322759,1.64237446 6.15315185,1.59222661 6.15315185,1.59222661 C5.49696702,1.20800808 4.75131366,1.00390372 3.99133431,1.00048194 C3.34451947,0.989250085 2.70947291,1.17457214 2.16980286,1.53204918 C1.97197324,1.66406206 1.81849464,1.85282033 1.72943262,2.07364599 C1.5793064,2.9562482 0.988809938,5.37337469 0.988809938,5.37337469 C0.848692134,5.65420267 1.35912128,5.43355212 1.35912128,5.43355212 Z" id="windows_windows"></path>
    </g>
</symbol></defs><use xlink:href="#windows" fill-opacity="0.5" fill="#121212"></use></svg>