<?xml version="1.0" encoding="UTF-8"?>
<svg width="16px" height="16px" viewBox="0 0 16 16" version="1.1" xmlns="http://www.w3.org/2000/svg" xmlns:xlink="http://www.w3.org/1999/xlink">
    <g id="icon-/-discover" stroke="none" stroke-width="1" fill="none" fill-rule="evenodd">
        <path d="M10.8292943,7 L14,7 C14.5522847,7 15,7.44771525 15,8 C15,8.55228475 14.5522847,9 14,9 L10.8292943,9 C10.5280094,9.85241345 9.85241345,10.5280094 9,10.8292943 L9,14 C9,14.5522847 8.55228475,15 8,15 C7.44771525,15 7,14.5522847 7,14 L7,10.8292943 C6.14758655,10.5280094 5.47199063,9.85241345 5.17070571,9 L2,9 C1.44771525,9 1,8.55228475 1,8 C1,7.44771525 1.44771525,7 2,7 L5.17070571,7 C5.47199063,6.14758655 6.14758655,5.47199063 7,5.17070571 L7,2 C7,1.44771525 7.44771525,1 8,1 C8.55228475,1 9,1.44771525 9,2 L9,5.17070571 C9.85241345,5.47199063 10.5280094,6.14758655 10.8292943,7 Z M5.96803265,4.55381909 C5.38559425,4.89798284 4.89798284,5.38559425 4.55381909,5.96803265 L3.05025253,4.46446609 C2.65972824,4.0739418 2.65972824,3.44077682 3.05025253,3.05025253 C3.44077682,2.65972824 4.0739418,2.65972824 4.46446609,3.05025253 L5.96803265,4.55381909 Z M4.55381909,10.0319673 C4.89798284,10.6144058 5.38559425,11.1020172 5.96803265,11.4461809 L4.46446609,12.9497475 C4.0739418,13.3402718 3.44077682,13.3402718 3.05025253,12.9497475 C2.65972824,12.5592232 2.65972824,11.9260582 3.05025253,11.5355339 L4.55381909,10.0319673 Z M10.0319673,11.4461809 C10.6144058,11.1020172 11.1020172,10.6144058 11.4461809,10.0319673 L12.9497475,11.5355339 C13.3402718,11.9260582 13.3402718,12.5592232 12.9497475,12.9497475 C12.5592232,13.3402718 11.9260582,13.3402718 11.5355339,12.9497475 L10.0319673,11.4461809 Z M11.4461809,5.96803265 C11.1020172,5.38559425 10.6144058,4.89798284 10.0319673,4.55381909 L11.5355339,3.05025253 C11.9260582,2.65972824 12.5592232,2.65972824 12.9497475,3.05025253 C13.3402718,3.44077682 13.3402718,4.0739418 12.9497475,4.46446609 L11.4461809,5.96803265 Z M8,7 C7.44771525,7 7,7.44771525 7,8 C7,8.55228475 7.44771525,9 8,9 C8.55228475,9 9,8.55228475 9,8 C9,7.44771525 8.55228475,7 8,7 Z" id="Combined-Shape" fill="#FFFFFF"></path>
    </g>
</svg>